<?xml version="1.0" encoding="utf-8"?><svg xmlns="http://www.w3.org/2000/svg" xmlns:xlink="http://www.w3.org/1999/xlink"><symbol viewBox="0 0 10 5" id="icon-arrow-down" xmlns="http://www.w3.org/2000/svg"><path d="M5 5L9.33.5H.67L5 5z"/></symbol><symbol viewBox="0 0 46 56" id="icon-chemistry" xmlns="http://www.w3.org/2000/svg"><path clip-rule="evenodd" d="M7.787.194c-.373.248-1.831 1.95-2.05 2.393-.299.605-.125 1.037.718 1.78.406.358.862.75 1.014.87.307.245.33.18-.43 1.154-.382.488-.495.733-.536 1.155-.078.807.239 1.352 1.297 2.232 1.307 1.087 1.52 1.19 2.354 1.145l.702-.039 1.555 1.302c.855.716 1.555 1.345 1.555 1.397 0 .053-1.733 1.987-3.851 4.299-2.176 2.375-3.883 4.329-3.924 4.491-.156.62.778 1.193 1.282.788.457-.367 7.947-8.657 8.039-8.897.158-.412.128-1.106-.063-1.473-.093-.179-.889-.936-1.768-1.683-.88-.747-1.603-1.392-1.608-1.432-.02-.17 3.706-4.428 3.833-4.38.075.029 1.577 1.264 3.337 2.745 2.361 1.986 3.28 2.827 3.505 3.206l.303.512.03 13.782.029 13.782-.568.2c-.76.268-1.546 1.05-1.791 1.784-.166.495-.182 1.177-.154 6.556.017 3.302.056 6.072.086 6.156.037.1-.066.185-.301.249-.196.053-3.913.083-8.26.066l-7.902-.03-.548-.268a3.98 3.98 0 01-1.712-1.7l-.273-.547-.03-9.67c-.034-10.678-.026-10.827.647-12.433.45-1.072.978-1.863 2.061-3.084.678-.764.901-1.094.901-1.328 0-.463-.333-.81-.777-.81-.324 0-.482.118-1.237.92-1.561 1.662-2.47 3.247-3.02 5.268-.166.614-.19 1.711-.223 10.616-.025 6.6.001 10.14.078 10.55.37 1.989 2.02 3.659 4.022 4.072.378.078 3.229.106 8.597.085 7.517-.029 8.069-.044 8.598-.234.56-.202.572-.202 1.188.027.617.23.708.231 10.785.231 11.599 0 10.815.062 11.818-.934.946-.94.93-.799.893-7.664-.031-5.835-.034-5.898-.274-6.343-.39-.726-.772-1.105-1.442-1.431l-.628-.307-9.441-.031-9.442-.031-.029-13.865-.03-13.864-.405-.814c-.494-.989-.576-1.069-4.43-4.305L16.795 3.83l-.017-.587c-.023-.767-.243-1.095-1.369-2.041-1.116-.938-1.4-1.09-2.046-1.09-.74 0-1.162.224-1.819.965l-.587.662-.67-.581C8.94-.011 8.406-.217 7.786.194zm6.56 2.276c.457.396.83.764.83.82 0 .094-.56.77-3.689 4.453-.775.912-1.401 1.555-1.515 1.555-.26 0-1.788-1.336-1.788-1.564 0-.277 4.897-5.982 5.134-5.982.11 0 .573.323 1.029.718zm-5.083-.03l.638.57-.537.597-.538.596-.29-.227c-.77-.602-1.075-.922-.998-1.05.204-.339.869-1.064.972-1.06.063.002.401.26.753.574zm22.25 18.782a3.704 3.704 0 00-1.876 1.724c-.42.85-.433 2.096-.031 2.922.338.694 1.004 1.358 1.706 1.7.816.4 2.074.384 2.933-.035.685-.335 1.269-.91 1.656-1.633.368-.686.364-2.224-.007-2.93a3.91 3.91 0 00-1.611-1.613c-.763-.391-1.97-.45-2.77-.135zm2.244 1.71c.574.425.746.769.746 1.495 0 .804-.272 1.269-.941 1.608-.56.284-1.063.273-1.651-.036-.542-.285-.987-.982-.987-1.547 0-.55.438-1.285.936-1.569.546-.31 1.444-.288 1.897.048zm-5.877 3.755c-.653.262-.787 1.135-.255 1.664.298.295.389.326.798.272.726-.097 1.118-.743.846-1.395-.22-.525-.832-.764-1.39-.54zm-17.44 4.166c-3.434.373-5.693 3.973-4.5 7.172 1.352 3.63 5.821 4.783 8.783 2.265 1.83-1.556 2.354-4.633 1.14-6.71a5.531 5.531 0 00-5.423-2.727zm23.789.682c-.555.175-1.282.942-1.438 1.513-.413 1.525.687 2.974 2.248 2.96 1.338-.012 2.272-.966 2.272-2.321 0-1.567-1.538-2.64-3.082-2.152zm-21.423 1.327c1.04.505 1.805 1.53 2.025 2.71.308 1.654-.581 3.332-2.17 4.096-.528.254-.766.3-1.56.302-.783.002-1.037-.045-1.562-.288-.802-.37-1.57-1.133-1.938-1.926-.362-.78-.402-1.958-.095-2.839.25-.72 1.125-1.693 1.849-2.057 1.037-.522 2.375-.521 3.451.002zm22.608.34c.476.33.228 1.17-.345 1.17-.64 0-.951-.684-.511-1.122.265-.262.527-.277.856-.048zm8.255 7.973c.663.399.69.559.69 4.202v3.288l-7.278.03-7.277.031-.266.307c-.146.169-.266.4-.266.513 0 .114.12.345.266.514l.265.307 7.278.03 7.278.03v1.368c0 1.573-.126 2.006-.682 2.342-.358.217-.528.22-10.397.221H23.25l-.373-.249c-.578-.387-.647-.626-.65-2.239v-1.449h1.985c2.217 0 2.688-.1 2.813-.594a1.364 1.364 0 000-.561c-.126-.495-.596-.594-2.813-.594h-1.986V45.33c0-3.964.006-3.988 1.095-4.322.155-.047 4.717-.077 10.138-.066 9.569.018 9.866.025 10.212.233zm-6.243.803c-.852.846.11 2.171 1.178 1.623.905-.465.646-1.758-.38-1.895-.41-.055-.5-.024-.798.272zm-7.31 1.24c-.274.157-.517.764-.437 1.089.152.616.725.944 1.316.75 1.086-.356.857-1.97-.279-1.96-.219.002-.49.056-.6.12zm3.836 1.834a1.04 1.04 0 00-.554 1.386c.421 1 1.93.688 1.93-.4 0-.724-.741-1.256-1.376-.986z"/></symbol><symbol viewBox="0 0 20 20" id="icon-close" xmlns="http://www.w3.org/2000/svg"><path d="M.639.638a.903.903 0 011.276 0l17.447 17.447a.903.903 0 11-1.277 1.277L.639 1.915a.903.903 0 010-1.277z"/><path d="M19.361.638a.903.903 0 00-1.276 0L.638 18.085a.903.903 0 001.277 1.277L19.361 1.915a.903.903 0 000-1.277z"/></symbol><symbol viewBox="0 0 52 56" id="icon-damage" xmlns="http://www.w3.org/2000/svg"><path fill-rule="evenodd" clip-rule="evenodd" d="M4.39.257c-.224.234-.433 1.498-2.318 14L0 28l2.072 13.743c1.885 12.502 2.094 13.766 2.319 14l.248.257H7.63c2.857 0 3.005-.01 3.287-.227.186-.143.296-.333.296-.516 0-.159-.915-6.357-2.033-13.773L7.147 28l1.526-10.117c1.113-7.387 1.497-10.19 1.421-10.384-.205-.526-.827-.649-1.28-.253-.274.238-.332.571-1.823 10.5l-1.54 10.253 1.938 12.88a3223.85 3223.85 0 001.998 13.18l.06.3H5.664l-1.982-13.18L1.699 28l1.983-13.18L5.664 1.642H9.445l-.063.3c-.206.988-.333 2.46-.235 2.732.193.536 1.128.623 1.398.13.133-.242.661-3.422.665-4.002.002-.247-.083-.413-.293-.574C10.635.01 10.487 0 7.63 0H4.64L4.39.257zm11.328 6.88c-.189.088-.892 1.355-2.606 4.695-1.292 2.516-2.348 4.667-2.348 4.779 0 .112.105.333.232.491.257.318.801.388 1.128.145.297-.22 4.805-9.109 4.805-9.473 0-.216-.096-.394-.295-.547-.328-.252-.532-.272-.916-.09zm1.491 7.362c-1.617.536-2.034.83-1.909 1.348.086.354.452.669.779.669.424 0 3.253-.971 3.4-1.168.247-.33.172-.87-.155-1.121-.163-.125-.377-.223-.477-.219-.1.005-.837.226-1.638.491zm7.134 1.369c-1.012.194-2.231 1.208-2.498 2.078l-.128.415-3.383.034-3.383.035-.66.329c-1.447.723-2.077 2.382-1.456 3.837.141.33.135.341-.225.468-.514.182-1.262.921-1.545 1.528-.32.688-.322 1.749-.004 2.431.279.599.923 1.236 1.5 1.484l.42.18-.174.395c-.257.58-.23 1.705.055 2.326.278.605 1.025 1.345 1.541 1.527l.37.13-.174.394c-.254.575-.228 1.704.053 2.316.292.637.933 1.265 1.594 1.563.484.218.694.232 3.485.232 3.322 0 3.389-.012 4.264-.782 1.208-1.063 1.355-3.075.305-4.167l-.237-.246.237-.246c.922-.958.922-2.925 0-3.883L24.063 28l.23-.246c.126-.136.288-.357.36-.492.071-.136.196-.246.276-.246.322 0 1.535-.691 1.873-1.067.67-.744.89-1.397.965-2.864l.068-1.32h1.036c.82 0 1.085-.04 1.278-.192.332-.262.342-.84.02-1.155-.23-.223-.348-.238-1.91-.238-2.232 0-2.1-.134-2.157 2.178-.043 1.709-.057 1.803-.34 2.22-.542.799-1.698 1.066-2.229.515-.269-.28-.272-.307-.307-2.816-.02-1.394-.004-2.79.035-3.104.092-.73.435-1.226 1.066-1.54.502-.25.518-.25 4.595-.215 3.686.032 4.147.056 4.652.242.433.16.89.52 2.019 1.596 1.626 1.548 2.246 1.98 3.288 2.295.67.202 1.066.215 6.69.215h5.976l.232-.289c.353-.437.268-.987-.185-1.202-.11-.053-2.897-.12-6.196-.15l-5.996-.055-.543-.26c-.331-.16-1.145-.828-2.083-1.712-2.465-2.323-2.553-2.348-8.078-2.334-2.127.006-4.087.052-4.355.104zm-2.8 6.69c.046 2.865.088 3.04.92 3.828.498.473.463.59-.225.745-.563.128-8.035.128-8.599 0-.545-.123-.938-.481-1.098-1-.105-.342-.091-.472.086-.82.43-.846.482-.859 3.758-.92 2.722-.051 2.927-.07 3.075-.267.236-.317.198-.867-.077-1.111-.208-.184-.474-.215-2.289-.263-1.975-.053-2.064-.065-2.339-.317-.782-.718-.528-1.897.493-2.294.16-.063 1.563-.112 3.268-.116l2.987-.007.04 2.543zm1.394 6.689c.335.328.38.44.38.94 0 .498-.046.614-.37.931-.498.486-.755.513-4.525.472-2.984-.033-3.176-.048-3.475-.261-.174-.124-.41-.412-.526-.64-.18-.352-.192-.476-.083-.832.071-.23.283-.546.472-.7l.343-.282h7.402l.382.372zm0 4.375c.335.328.38.44.38.94 0 .498-.046.614-.37.931-.484.472-.814.515-3.628.471-2.547-.039-2.688-.08-3.105-.9-.18-.352-.192-.476-.082-.832.07-.23.283-.546.471-.7l.343-.282h5.609l.382.372zm13.857-.085c-.572.086-1.656.334-2.41.551-2.483.714-4.362 1.02-6.275 1.021-.494 0-.696.051-.868.22-.303.295-.297.886.013 1.158.21.184.4.206 1.663.187 1.823-.028 3.097-.231 5.329-.853 2.944-.819 2.959-.82 10.403-.82 4.796 0 6.66-.036 6.837-.128.559-.29.67-.758.293-1.225l-.232-.289-6.857.011c-5.343.009-7.087.045-7.896.167zm-24.9 6.236c-.299.37-.294.579.026 1.036.42.603 6.265 7.91 6.4 8 .538.365 1.22.052 1.276-.587.03-.34-.251-.73-3.234-4.474-1.797-2.255-3.325-4.136-3.396-4.18-.299-.187-.84-.084-1.073.205zm4.624-.127a.728.728 0 00-.204 1.004c.218.326 3.13 2.225 3.41 2.225.11 0 .334-.102.496-.227.327-.25.404-.8.155-1.107-.282-.348-3.055-2.057-3.337-2.057-.156 0-.39.073-.52.162z"/></symbol><symbol viewBox="0 0 18 18" id="icon-location" xmlns="http://www.w3.org/2000/svg"><path d="M9 0C5.683 0 3 2.817 3 6.3 3 11.025 9 18 9 18s6-6.975 6-11.7C15 2.817 12.317 0 9 0zm0 8.55c-1.183 0-2.143-1.008-2.143-2.25S7.817 4.05 9 4.05c1.183 0 2.143 1.008 2.143 2.25S10.183 8.55 9 8.55z"/></symbol><symbol viewBox="0 0 18 18" id="icon-mail" xmlns="http://www.w3.org/2000/svg"><path d="M15.6 2.25H2.4c-.907 0-1.642.76-1.642 1.688L.75 14.062c0 .929.742 1.688 1.65 1.688h13.2c.908 0 1.65-.76 1.65-1.688V3.938c0-.929-.742-1.688-1.65-1.688zm0 3.375L9 9.844 2.4 5.625V3.937L9 8.157l6.6-4.22v1.688z"/></symbol><symbol viewBox="0 0 18 18" id="icon-phone" xmlns="http://www.w3.org/2000/svg"><path d="M4.965 8.092a11.361 11.361 0 004.943 4.943l1.65-1.65a.746.746 0 01.764-.18c.84.277 1.748.428 2.678.428.412 0 .75.337.75.75V15c0 .412-.338.75-.75.75C7.957 15.75 2.25 10.043 2.25 3c0-.413.337-.75.75-.75h2.625c.412 0 .75.337.75.75 0 .938.15 1.838.428 2.678a.753.753 0 01-.188.764l-1.65 1.65z"/></symbol><symbol viewBox="0 0 44 44" id="icon-range" xmlns="http://www.w3.org/2000/svg"><path fill-rule="evenodd" clip-rule="evenodd" d="M.607.67C.093 1.239 0 2.28 0 7.433c0 4.074.135 6.175.408 6.343.823.51 1.048-.885 1.053-6.533l.006-5.775H13.2v41.066H1.467V29.195c0-10.711-.097-13.419-.492-13.747-.271-.224-.601-.3-.734-.167C.11 15.414 0 21.657 0 29.154c0 12.741.044 13.672.67 14.24.597.539 2.056.606 13.2.606 10.465 0 12.53-.084 12.53-.51 0-.828-.873-.957-6.474-.957-4.68 0-5.3-.07-5.195-.587.099-.491.758-.597 3.969-.642l3.85-.054.107-2.213c.083-1.727.265-2.312.825-2.661.684-.428.718-.34.718 1.864 0 1.31.19 2.504.44 2.753.594.595 6.592.595 7.186 0 .285-.285.44-1.763.44-4.195 0-3.325-.083-3.815-.724-4.264-.694-.486-.67-.532.563-1.12.99-.473 2.34-.614 5.857-.614h4.57v11.718l-7.236.1c-6.555.09-7.248.16-7.36.74-.114.595.43.642 7.363.642 6.788 0 7.544-.063 8.094-.67.511-.566.607-1.593.607-6.53 0-7.468.14-7.24-4.584-7.411l-3.543-.129 3.147-1.826c2.21-1.282 3.212-2.086 3.366-2.7.164-.655-.405-1.959-2.267-5.196-3.324-5.779-3.735-6.338-4.65-6.338-.43 0-2.25.835-4.047 1.856-1.795 1.022-3.335 1.787-3.42 1.702-.085-.086.685-1.583 1.712-3.328 2.687-4.565 2.694-4.546-3.13-8.033-2.623-1.57-5.146-2.95-5.607-3.069-1.177-.301-1.968.53-4.212 4.43l-1.915 3.325-.184-4.437c-.123-2.989-.347-4.635-.686-5.042C13.55.087 12.593 0 7.345 0 1.871 0 1.15.072.607.67zm2.488 2.737c-.105.274-.143 2.053-.085 3.954l.107 3.456 3.483.107c5.44.168 5.178.379 5.054-4.06l-.104-3.747-4.132-.104c-3.215-.08-4.174.006-4.323.394zm22.354 2.806c2.396 1.4 4.518 2.708 4.716 2.905.233.234-2.372 5.02-7.479 13.74-7.784 13.292-7.837 13.37-7.948 11.763-.086-1.248.09-1.89.77-2.81.916-1.241 3.192-5.17 3.192-5.512 0-.108-.908-.708-2.017-1.334-1.628-.919-2.017-1.32-2.017-2.083v-.945l2.387 1.335c1.312.734 2.534 1.243 2.715 1.13.339-.208 3.698-5.794 3.698-6.148 0-.277-6.825-4.32-7.293-4.32-.21 0-.63.453-.93 1.008l-.547 1.008-.015-1.528c-.011-1.236.45-2.32 2.42-5.683 2.802-4.78 3.008-5.072 3.573-5.072.23 0 2.378 1.146 4.775 2.546zm-14.89.662l-.11 2.475-3.207.106-3.209.106V4.4h6.634l-.109 2.475zm9.434.073c-.308.595-.56 1.173-.56 1.284 0 .388.865.196 1.438-.32.507-.457.873-.344 2.961.913 1.31.79 2.428 1.573 2.485 1.742.15.453-1.772 3.764-2.305 3.969-.68.26-5.154-2.623-4.994-3.218.497-1.835-.372-2.354-1.213-.726-.315.607-.572 1.273-.572 1.478 0 .504 6.88 4.527 7.299 4.268.357-.22 3.701-5.803 3.701-6.178 0-.315-6.716-4.293-7.248-4.293-.238 0-.685.487-.992 1.081zM3.189 12.7c-.14.14-.256 1.878-.256 3.861v3.606h8.826l-.105-3.759-.104-3.758-4.052-.103c-2.23-.056-4.168.012-4.309.153zm7.37 3.708l-.11 2.475H4.218l-.109-2.475L4 13.933h6.667l-.109 2.475zm27.896 2.84c1.437 2.52 2.611 4.79 2.611 5.047 0 .54-26.16 15.726-26.33 15.284-.213-.552 1.046-2.546 1.607-2.546.573 0 6.39-3.223 6.39-3.54 0-.099-.536-1.15-1.192-2.336-1.098-1.989-1.145-2.205-.598-2.754.547-.55.699-.408 1.954 1.838.75 1.338 1.476 2.383 1.615 2.321 1.198-.53 5.952-3.348 6.126-3.63.24-.389-3.734-7.665-4.186-7.665-.15 0-.467.195-.706.433-.737.737-.918.04-.274-1.05.636-1.076 8.645-5.977 9.775-5.981.382-.002 1.54 1.65 3.208 4.58zm-16.83-.425c-.005.235-.544 1.287-1.198 2.337l-1.19 1.91-2.285-1.349c-2.522-1.487-2.769-2.106-1.69-4.231 1.088-2.142 1.084-2.142 3.824-.562 1.4.808 2.543 1.66 2.539 1.895zm9.648-.367c-1.453.857-2.748 1.663-2.876 1.792-.24.24 3.781 7.619 4.152 7.619.612 0 6.317-3.501 6.317-3.877 0-.916-3.83-7.123-4.385-7.107-.31.01-1.754.717-3.208 1.573zm4.628 2.476c.824 1.43 1.499 2.651 1.499 2.715 0 .18-3.986 2.387-4.303 2.383-.283-.004-3.03-4.622-3.03-5.094 0-.244 3.597-2.503 4.093-2.57.134-.018.917 1.137 1.741 2.566zM3.012 25.758l.105 3.759h8.433l.104-3.759L11.76 22H2.908l.104 3.758zm7.546 0l.109 2.475H4.033v-2.322c0-1.277.117-2.438.258-2.58.142-.142 1.586-.21 3.209-.153l2.95.105.108 2.475zm17.23-.009l1.527 2.65-2.1 1.196c-1.154.658-2.184 1.198-2.288 1.2-.104.003-.746-.926-1.427-2.065-1.503-2.513-1.312-3.544.889-4.79.803-.456 1.553-.83 1.666-.834.114-.003.894 1.186 1.733 2.643zm-10.922 1.123c0 .373-1.836 3.561-2.051 3.561-.082 0-.149-1.164-.149-2.587v-2.587l1.1.65c.606.357 1.1.79 1.1.963zm4.026 5.978c.007.348-3.217 2.35-3.785 2.35-.115 0 .39-1.006 1.122-2.235l1.331-2.235.662.86c.364.473.665 1.04.67 1.26zm13.005-.115c-.105.273-.143 2.3-.085 4.505l.104 4.01h7.334v-8.8l-3.582-.105c-2.744-.08-3.626.01-3.771.39zM30.8 36.85v3.117h-5.134v-2.39c0-2.3.044-2.414 1.192-3.114.655-.4 1.81-.727 2.567-.728l1.375-.002v3.117zm9.533 0v3.117H35.2v-6.234h5.133v3.117zm-34.77-1.168c-1.053 1.122-1.006 2.275.139 3.42.727.728 1.155.881 1.925.692.544-.133 1.185-.438 1.424-.676.239-.24.543-.88.677-1.425.188-.77.035-1.197-.693-1.925-1.162-1.162-2.43-1.194-3.471-.086zM8.25 37.4c0 .733-.183.917-.917.917-.733 0-.94-.208-1.035-1.036-.108-.941-.025-1.024.916-.916.829.094 1.036.302 1.036 1.035zm12.9 2.439c-.094.094-.96.12-1.923.058l-1.751-.114 1.803-.991 1.804-.992.12.934c.065.513.041 1.01-.053 1.105z"/></symbol><symbol viewBox="0 0 28 28" id="icon-search" xmlns="http://www.w3.org/2000/svg"><path d="M18.083 16.333h-.921l-.327-.315a7.55 7.55 0 001.832-4.935 7.583 7.583 0 10-15.167 0 7.583 7.583 0 007.583 7.584 7.55 7.55 0 004.935-1.832l.315.327v.921l5.834 5.822 1.738-1.738-5.822-5.834zm-7 0a5.243 5.243 0 01-5.25-5.25 5.243 5.243 0 015.25-5.25 5.243 5.243 0 015.25 5.25 5.243 5.243 0 01-5.25 5.25z"/></symbol><symbol viewBox="0 0 50 50" id="icon-temperature" xmlns="http://www.w3.org/2000/svg"><path fill-rule="evenodd" clip-rule="evenodd" d="M23.137.108c-.298.143-.952 1.149-1.51 2.324-1.566 3.292-1.288 6.266.792 8.503.386.415 1.297 1.248 2.023 1.851.727.603 1.55 1.362 1.83 1.686 1.896 2.2 1.706 4.731-.633 8.431-.29.457-.526.893-.526.969 0 .544.638 1.015 1.188.88.595-.148 2.304-3.173 2.78-4.922.34-1.246.345-2.943.015-3.99-.502-1.587-1.312-2.606-3.551-4.467-2.279-1.894-2.965-2.912-3.11-4.612-.113-1.336.47-3.155 1.6-4.989.548-.887.531-1.324-.06-1.625-.363-.185-.519-.192-.838-.039zm7.188 1.417c-.48.506-1.47 2.48-1.713 3.418-.385 1.483-.251 2.905.39 4.152.379.736 1.235 1.633 2.735 2.863 1.374 1.127 1.717 1.508 2.074 2.303.651 1.451.21 3.349-1.286 5.54-.507.74-.54 1.207-.112 1.54.776.601 1.423.054 2.553-2.163 1.107-2.17 1.253-4.082.44-5.781-.447-.937-1.09-1.642-2.726-2.99-1.461-1.203-1.706-1.464-2.16-2.303-.228-.424-.268-.653-.267-1.555.002-.91.047-1.165.328-1.836.18-.428.548-1.138.817-1.577.561-.913.607-1.267.214-1.654-.388-.382-.9-.365-1.287.043zM16.172 3.35c-.496.394-1.41 2.073-1.804 3.315-.35 1.1-.354 2.75-.011 3.68.459 1.242 1.07 1.98 2.796 3.38.631.511 1.382 1.187 1.668 1.5 1.444 1.583 1.293 3.606-.472 6.317-.317.487-.576 1.007-.576 1.156a.86.86 0 00.635.814c.52.128.905-.13 1.458-.98 1.514-2.324 2.048-4.445 1.573-6.243-.355-1.343-1.103-2.315-2.861-3.72-1.955-1.564-2.529-2.331-2.678-3.585-.13-1.083.296-2.443 1.248-3.986.22-.356.399-.78.399-.944 0-.62-.9-1.08-1.375-.704zM5.632 26.564c-.79.483-1.207 1.253-1.213 2.236-.006 1.014.394 1.734 1.185 2.131.404.203.424.24.424.767 0 .305-.044.555-.097.555-.053 0-.7-.282-1.44-.625-1.659-.772-2.32-.87-3.094-.461-1.354.715-1.81 2.398-.983 3.63.317.472.689.68 3.598 2.014l1.993.914.051 2.299c.054 2.407.133 2.893.698 4.27.422 1.03.963 1.845 1.814 2.737 1.298 1.36 2.501 2.102 4.314 2.662l.994.307h22.248l.995-.307c1.82-.563 3.047-1.322 4.324-2.676.852-.904 1.392-1.72 1.803-2.723.557-1.359.64-1.866.697-4.269l.055-2.297 1.766-.807c2.968-1.355 3.506-1.654 3.82-2.12.83-1.236.376-2.918-.981-3.634-.774-.41-1.435-.31-3.094.46-.739.344-1.387.626-1.44.626-.053 0-.096-.252-.096-.56 0-.433.045-.576.197-.629 1.485-.515 1.903-2.86.728-4.079-.65-.675.795-.63-19.92-.63-18.345.001-19.019.008-19.346.209zm38.038 1.655c.153.255.181.774.052.937-.132.166-1.708.186-18.64.23-14.465.038-18.537.02-18.685-.087-.19-.136-.247-.797-.092-1.044.087-.14 37.283-.174 37.365-.036zm-1.53 8.512c-.045 6.063-.025 5.882-.827 7.427a7.623 7.623 0 01-5.269 3.944c-1.308.26-20.784.26-22.088 0a7.618 7.618 0 01-5.35-4.11c-.737-1.515-.767-1.812-.77-7.595l-.001-5.146h34.344l-.04 5.48zM4.284 33.494l1.743.797v.706c0 .388-.039.704-.085.702-.047-.001-.974-.417-2.061-.923l-1.976-.92-.035-.402c-.027-.315.021-.44.223-.579.141-.097.3-.177.353-.177.052 0 .88.358 1.838.796zm43.621-.619c.202.14.25.264.223.581l-.034.404-1.977.919c-1.087.505-2.014.92-2.06.92-.047.002-.085-.314-.085-.702v-.706l1.722-.792c.947-.437 1.774-.795 1.838-.797.064-.003.232.076.373.173zm-38.89 2.878c-.26.255-.278.348-.278 1.451 0 1.103.018 1.196.277 1.452a.916.916 0 00.626.273c.22 0 .452-.101.627-.273.26-.256.277-.35.277-1.452 0-1.103-.018-1.196-.277-1.451a.916.916 0 00-.627-.274c-.22 0-.451.101-.626.274zm-.057 4.483c-.218.271-.239.396-.18 1.085.186 2.223 1.633 4.327 3.668 5.335.73.361 2.137.73 2.787.73.676 0 1.07-.329 1.07-.891 0-.505-.395-.89-.913-.89-1.544 0-3.322-1.011-4.136-2.352-.394-.65-.71-1.687-.71-2.33 0-.601-.356-.993-.904-.993-.34 0-.489.067-.682.306z"/></symbol><symbol viewBox="0 0 60 59" id="icon-term" xmlns="http://www.w3.org/2000/svg"><path fill-rule="evenodd" clip-rule="evenodd" d="M31.182 1.675c-1.105.92-2.044 1.782-2.086 1.913a1.045 1.045 0 00-.013.49c.035.139.9 1.07 1.924 2.07 1.562 1.528 1.915 1.818 2.204 1.815.393-.004.653-.17.858-.55.22-.407.061-.701-.905-1.669-.543-.543-.82-.895-.703-.895.466 0 3.065.492 4.024.762 4.105 1.154 7.707 3.168 10.71 5.986 3.78 3.55 6.375 8.186 7.362 13.156.247 1.243.353 1.56.59 1.774.46.415.996.302 1.308-.275.102-.188.09-.488-.047-1.27-.938-5.349-3.332-10.012-7.112-13.855-2.69-2.735-5.445-4.624-8.823-6.051-2.245-.949-5.2-1.733-7.235-1.919-.439-.04-.798-.107-.798-.15 0-.042.145-.183.323-.312.177-.129.625-.508.996-.841.565-.509.674-.67.674-.995 0-.488-.378-.859-.877-.859-.299 0-.727.302-2.374 1.675zm-7.184 1.92c-3.789.857-7.93 2.838-10.88 5.205C7.83 13.041 4.195 19.314 3.36 25.632c-.233 1.77-.172 1.732-1.096.674-.441-.505-.934-.968-1.095-1.029-.618-.231-1.382.525-1.114 1.104.066.143.892 1.124 1.835 2.18 1.556 1.743 1.75 1.92 2.095 1.92.337 0 .603-.22 2.282-1.884 1.046-1.036 1.901-1.969 1.901-2.073 0-.516-.495-1.007-1.016-1.007-.102 0-.627.425-1.168.944-1.14 1.097-1.109 1.14-.75-1.002.837-4.987 3.126-9.495 6.671-13.132 3.373-3.46 7.787-5.897 12.59-6.95.756-.167 1.457-.334 1.557-.371.28-.106.54-.692.456-1.024-.17-.67-.82-.77-2.51-.387zm3.383 5.354C16.07 10.298 7.836 20.466 8.995 31.653c.432 4.165 2.167 8.158 4.95 11.39 4.428 5.145 11.31 7.864 18.16 7.175 4.977-.5 9.88-2.871 13.183-6.376 4.156-4.41 6.2-10.119 5.703-15.93-.24-2.807-.824-4.895-2.075-7.418-2.14-4.32-5.439-7.564-9.792-9.63C35.397 9.098 31.488 8.46 27.38 8.95zm6.497 2.01c7.605 1.634 13.335 7.278 14.988 14.764.388 1.758.445 5.058.12 6.94-1.343 7.76-7.243 13.808-15.114 15.494-1.785.382-5.136.438-7.049.117-7.902-1.325-14.008-7.116-15.748-14.935-.23-1.032-.263-1.517-.263-3.781 0-2.869.142-3.833.889-6.033 2.22-6.534 7.995-11.43 14.95-12.67 1.773-.316 5.524-.262 7.227.104zm-4.595 1.469c-.216.27-.243.462-.243 1.716s.027 1.446.243 1.716c.187.235.346.304.695.304.348 0 .507-.07.695-.304.216-.27.243-.462.243-1.716s-.027-1.446-.243-1.716c-.188-.235-.347-.305-.695-.305-.349 0-.508.07-.695.305zm8.637 2.206c-.421.46-1.493 2.405-1.493 2.708 0 .638.812 1.084 1.346.74.363-.235 1.702-2.446 1.702-2.812 0-.663-1.113-1.118-1.555-.636zm-17.333.13c-.453.36-.358.847.412 2.134.54.9.764 1.17 1.08 1.3.345.143.441.142.733-.007.355-.18.482-.388.482-.787 0-.314-1.372-2.599-1.649-2.744a.992.992 0 00-1.058.104zm8.696 3.321c-.235.294-.243.434-.243 4.192v3.888l-.446.194a3.533 3.533 0 00-1.952 4.298l.212.663-2.663 2.554c-2.33 2.235-2.662 2.597-2.655 2.9.013.656.69 1.118 1.228.837.151-.08 1.41-1.224 2.799-2.544l2.524-2.4.74.248c1.697.566 3.47-.155 4.34-1.765.388-.717.388-2.352 0-3.07-.402-.743-1.006-1.343-1.663-1.65l-.588-.275v-3.883c0-3.753-.008-3.893-.243-4.187-.188-.235-.347-.304-.695-.304-.349 0-.508.07-.695.304zm14.765 1.97c-.096.038-.669.352-1.272.7-.863.498-1.132.716-1.263 1.024-.144.341-.143.435.008.723.35.667.76.635 2.165-.167 1.256-.717 1.536-.976 1.532-1.42-.005-.576-.658-1.056-1.17-.86zm-29.143.434c-.347.342-.39.976-.083 1.248.447.396 2.44 1.47 2.728 1.47.649 0 1.119-.805.773-1.325-.238-.358-2.484-1.677-2.855-1.677-.151 0-.405.128-.563.284zm15.963 7.643c.387.25.704.71.805 1.166.235 1.071-.886 2.13-2.033 1.918-.573-.106-1.258-.819-1.36-1.415-.239-1.389 1.393-2.44 2.588-1.669zm-18.287.741c-.442.343-.437 1.031.011 1.378.296.229.432.245 1.806.21 1.262-.032 1.522-.07 1.732-.257.37-.33.337-1.02-.063-1.33-.274-.213-.47-.24-1.743-.24-1.273 0-1.469.027-1.743.24zm31.307 0a.88.88 0 000 1.37c.275.212.47.238 1.743.238 1.274 0 1.47-.026 1.743-.239.239-.184.31-.341.31-.684s-.071-.5-.31-.685c-.274-.212-.47-.239-1.743-.239-1.273 0-1.468.027-1.743.24zm9.926 1.757c-2.056 2.024-2.148 2.177-1.666 2.78.18.227.349.304.658.304.36 0 .54-.12 1.34-.886.508-.487.925-.818.925-.735 0 .083-.084.676-.185 1.319-1.644 10.375-9.593 18.592-19.946 20.616-1.01.197-1.781.409-1.91.524-.501.446-.343 1.21.3 1.45.434.162 3.038-.37 5.133-1.05 7.928-2.572 14.211-8.717 17.026-16.655.564-1.59 1.074-3.684 1.248-5.125.079-.654.18-1.19.227-1.19.045 0 .196.143.334.318.139.175.544.616.901.981.528.54.72.664 1.029.664.697 0 1.008-.757.57-1.388-.396-.57-3.203-3.667-3.386-3.736-.505-.191-.719-.042-2.598 1.809zM3.742 32.79c-.467.28-.49.613-.154 2.21 1.672 7.933 6.964 14.711 14.323 18.348 2.557 1.263 5.595 2.216 8.137 2.552.614.081 1.116.18 1.116.218 0 .039-.426.37-.946.737s-.995.795-1.055.952c-.232.6.19 1.193.85 1.193.228 0 .922-.444 2.428-1.553 1.16-.854 2.165-1.656 2.233-1.782.295-.543.173-.726-1.73-2.587-1.491-1.457-1.919-1.814-2.177-1.814-.455 0-.721.17-.887.563-.192.455-.07.672.974 1.726l.837.845-.41-.066c-.226-.037-.762-.118-1.192-.182-.43-.064-1.39-.267-2.134-.452-7.176-1.785-13.228-6.63-16.501-13.214-.915-1.84-1.74-4.205-2.092-6.003-.267-1.362-.37-1.626-.707-1.803-.318-.168-.481-.148-.913.111zm38.082 3.346c-.34.334-.415.762-.191 1.098.237.357 2.483 1.676 2.854 1.676.422 0 .851-.492.851-.975 0-.348-.074-.462-.495-.762-.822-.587-2.152-1.265-2.48-1.265a.892.892 0 00-.54.228zm-24.667.057c-1.34.7-2.31 1.37-2.38 1.644a.955.955 0 00.453 1.068c.396.219.66.13 2.087-.702 1.303-.76 1.55-1.185 1.023-1.765-.34-.375-.765-.463-1.183-.245zm4.99 4.86c-.35.24-1.667 2.448-1.667 2.792 0 .408.5.838.973.838.487 0 .59-.109 1.422-1.495.816-1.362.852-1.802.176-2.146-.42-.215-.58-.213-.904.011zm14.685.103c-.158.156-.288.4-.288.544 0 .142.326.818.725 1.5.814 1.394 1.108 1.624 1.742 1.366.437-.179.626-.501.54-.923-.076-.375-1.299-2.416-1.573-2.626-.307-.235-.831-.171-1.146.14zm-7.55 2.1c-.215.27-.242.462-.242 1.716 0 1.253.027 1.446.243 1.716.347.435 1.046.43 1.398-.011.233-.291.25-.425.214-1.778-.032-1.243-.071-1.499-.261-1.705-.336-.364-1.037-.333-1.351.061z"/></symbol><symbol viewBox="0 0 60 59" id="icon-ultraviolet" xmlns="http://www.w3.org/2000/svg"><path fill-rule="evenodd" clip-rule="evenodd" d="M29.497.156c-.115.086-.26.33-.322.543-.17.583-.134 9.162.04 9.662a.82.82 0 001.57 0c.174-.5.21-9.079.04-9.662C30.692.243 30.405 0 30 0a.982.982 0 00-.503.156zM20.661 7.37c-.289.114-.506.45-.506.784 0 .385 1.513 3.871 1.773 4.084.135.11.374.201.531.201.35 0 .86-.479.86-.806 0-.222-.672-1.93-1.367-3.472-.184-.408-.4-.697-.581-.778-.333-.15-.365-.15-.71-.013zm17.934.017c-.14.068-.387.416-.549.773-.67 1.477-1.366 3.244-1.366 3.47 0 .33.51.81.86.81.158 0 .397-.091.531-.202.271-.224 1.774-3.718 1.774-4.126 0-.564-.72-.982-1.25-.725zM10.13 9.956c-.596.585-.535.672 2.61 3.773 2.72 2.683 2.923 2.858 3.321 2.858.53 0 .813-.286.813-.819 0-.366-.232-.625-2.906-3.247-3.154-3.092-3.243-3.151-3.838-2.566zm35.902 2.566c-2.728 2.674-2.906 2.874-2.906 3.266 0 .52.29.799.833.799.372 0 .635-.228 3.301-2.858 3.146-3.101 3.206-3.188 2.61-3.774-.595-.585-.684-.526-3.838 2.566zm-17.79 1.42c-3.725.453-6.791 1.925-9.446 4.535-3.128 3.077-4.66 6.696-4.66 11.016 0 2.622.485 4.681 1.632 6.93.62 1.219 1.625 2.707 1.937 2.871.56.295 1.279-.115 1.279-.729 0-.18-.265-.687-.648-1.239-1.681-2.428-2.445-4.874-2.445-7.833 0-3.828 1.394-7.13 4.144-9.816 2.775-2.71 6.083-4.056 9.965-4.056 3.008 0 5.496.75 7.966 2.404 1.093.732 1.494.803 1.87.332.485-.606.316-.956-.84-1.742-1.78-1.21-4.108-2.157-6.173-2.51-1.295-.223-3.459-.3-4.581-.163zm13.03 5.908c-.398.416-.318.786.392 1.81 1.698 2.453 2.446 4.875 2.438 7.89-.011 3.875-1.542 7.383-4.363 10-2.736 2.538-5.978 3.808-9.739 3.814-3.04.006-5.701-.82-8.166-2.535-.832-.578-1.272-.641-1.658-.237-.272.284-.325.656-.144.99.168.308 1.681 1.295 2.92 1.906 2.287 1.127 4.382 1.603 7.048 1.603 4.273 0 7.935-1.46 11.035-4.398 3.16-2.996 4.83-6.87 4.83-11.2-.002-2.622-.487-4.682-1.633-6.93-.62-1.218-1.625-2.706-1.937-2.87a.846.846 0 00-1.024.157zm-33.458.091c-.323.185-.468.664-.312 1.034.141.335.381.458 2.775 1.421.722.29 1.424.529 1.558.529.333 0 .82-.503.82-.847 0-.5-.378-.751-2.27-1.514-1.893-.764-2.196-.837-2.571-.623zm41.758.633c-1.854.757-2.227 1.009-2.227 1.504 0 .345.488.847.822.847.136 0 .837-.237 1.558-.527 2.356-.946 2.631-1.087 2.773-1.423.245-.581-.187-1.175-.838-1.152-.15.005-1.089.343-2.088.75zm-27.975 4.089c-.617.224-.64.385-.6 4.102.037 3.431.038 3.437.344 4.07a4.042 4.042 0 001.803 1.818c.784.398 2.315.493 3.255.202.939-.29 1.69-.906 2.185-1.79l.42-.748.037-3.508c.04-3.782.019-3.938-.56-4.137-.374-.128-.984.083-1.1.381-.042.108-.076 1.653-.076 3.434 0 3.052-.015 3.267-.246 3.737-.35.71-1.014 1.072-1.966 1.072-.846 0-1.36-.186-1.787-.648-.528-.571-.572-.903-.572-4.274 0-1.84-.048-3.248-.115-3.37-.15-.276-.698-.459-1.022-.341zm16.164-.035c-.146.023-.345.16-.441.305-.096.144-.652 1.602-1.234 3.239-.582 1.637-1.1 3.05-1.152 3.14-.06.107-.414-.759-1.008-2.47-1.486-4.272-1.443-4.189-2.123-4.189-.44 0-.865.365-.865.741 0 .421 3.076 9.103 3.32 9.371.15.165.37.26.606.26a.821.821 0 00.606-.26c.132-.143.953-2.282 1.836-4.778 1.259-3.56 1.576-4.576 1.495-4.787-.171-.442-.55-.65-1.04-.572zM.236 28.938C-.2 29.4-.01 30.057.63 30.297c.452.169 9.405.162 9.9-.008.62-.213.813-.932.367-1.37-.227-.224-.39-.231-5.328-.231-5.089 0-5.094 0-5.333.252zm48.867-.02c-.446.438-.254 1.157.367 1.37.495.17 9.448.177 9.9.008.64-.24.83-.896.394-1.357-.24-.252-.244-.252-5.333-.252-4.937 0-5.1.007-5.328.23zM9.725 36.821c-1 .413-1.878.778-1.952.81-.075.033-.196.202-.27.376-.237.563.173 1.165.794 1.165.391 0 3.937-1.487 4.153-1.742a.951.951 0 00.205-.523c0-.356-.493-.847-.845-.842-.148.002-1.086.342-2.085.756zm37.908-.477c-.338.332-.37.748-.083 1.085.215.252 3.77 1.743 4.158 1.743a.838.838 0 00.79-1.162c-.142-.335-.417-.477-2.773-1.422-.72-.29-1.422-.527-1.558-.527-.135 0-.376.127-.534.283zm-34.894 8.912c-3.144 3.102-3.205 3.189-2.61 3.774.596.586.685.526 3.839-2.566 2.728-2.675 2.906-2.875 2.906-3.266 0-.52-.29-.8-.833-.8-.372 0-.635.229-3.302 2.858zm30.581-2.646c-.107.116-.194.39-.194.608 0 .365.232.624 2.906 3.246 3.154 3.092 3.243 3.152 3.838 2.566.596-.585.536-.672-2.61-3.774-2.72-2.682-2.923-2.857-3.322-2.857-.262 0-.498.08-.618.21zm-21.392 4.14c-.26.211-1.773 3.698-1.773 4.083a.85.85 0 001.182.78c.34-.138.465-.374 1.445-2.727.296-.71.538-1.4.538-1.532 0-.328-.512-.807-.86-.807a.987.987 0 00-.532.202zm15.04.08c-.158.156-.288.391-.288.523 0 .133.242.822.538 1.533.98 2.353 1.105 2.59 1.445 2.728a.85.85 0 001.182-.781c0-.385-1.513-3.872-1.773-4.084-.344-.282-.766-.251-1.104.081zm-7.462 1.337c-.11.064-.254.308-.321.544-.156.552-.165 9.045-.01 9.575.277.95 1.373.95 1.65 0 .155-.532.146-9.023-.01-9.576-.171-.605-.768-.852-1.309-.543z"/></symbol><symbol viewBox="0 0 18 18" id="icon-whatsapp" xmlns="http://www.w3.org/2000/svg"><path fill-rule="evenodd" clip-rule="evenodd" d="M13.061 10.787c-.223-.112-1.319-.65-1.523-.726-.204-.074-.353-.11-.502.113-.148.222-.575.724-.705.873-.13.149-.26.167-.483.056-.223-.112-.941-.347-1.792-1.106-.662-.591-1.11-1.321-1.24-1.544-.13-.223-.014-.344.098-.455.1-.1.222-.26.334-.39.112-.13.148-.223.223-.373.075-.148.037-.278-.019-.39-.056-.111-.501-1.209-.687-1.655-.18-.434-.364-.375-.501-.382a9.642 9.642 0 00-.428-.008.817.817 0 00-.594.279c-.204.223-.78.762-.78 1.86 0 1.096.799 2.156.91 2.305.112.148 1.572 2.4 3.807 3.365.533.23.947.367 1.27.469.535.17 1.02.146 1.405.088.427-.064 1.318-.539 1.504-1.06.185-.52.185-.966.13-1.06-.056-.092-.204-.148-.428-.26h.001zm-4.066 5.552h-.003a7.403 7.403 0 01-3.774-1.034l-.27-.16-2.807.736.75-2.736-.177-.28A7.396 7.396 0 011.581 8.92c.002-4.088 3.327-7.413 7.417-7.413a7.36 7.36 0 015.24 2.173 7.37 7.37 0 012.17 5.245c-.002 4.087-3.327 7.414-7.413 7.414zm6.309-13.723A8.862 8.862 0 008.994 0C4.079 0 .076 4.001.075 8.919a8.898 8.898 0 001.19 4.459L0 18l4.728-1.24a8.91 8.91 0 004.263 1.085h.004c4.915 0 8.917-4 8.919-8.92a8.866 8.866 0 00-2.61-6.309"/></symbol></svg>